#tb 0: 1/25
0,          0,          0,        1,   152064, 0x57a27a9b
0,          1,          1,        1,   152064, 0x25c16856
0,          2,          2,        1,   152064, 0x19adf9cc
0,          3,          3,        1,   152064, 0x974e9a66
0,          4,          4,        1,   152064, 0x3c68cbb8
0,          5,          5,        1,   152064, 0x56c397f9
0,          6,          6,        1,   152064, 0x9be92877
0,          7,          7,        1,   152064, 0x53d12880
0,          8,          8,        1,   152064, 0x31eb35a2
0,          9,          9,        1,   152064, 0x86cd1566
0,         10,         10,        1,   152064, 0xcf5951f5
0,         11,         11,        1,   152064, 0x35c30986
0,         12,         12,        1,   152064, 0x58e8eb9a
0,         13,         13,        1,   152064, 0x63dfce6a
0,         14,         14,        1,   152064, 0xbd2e4cc7
0,         15,         15,        1,   152064, 0x3320ba14
0,         16,         16,        1,   152064, 0xc757dd0a
0,         17,         17,        1,   152064, 0x9f05ed64
0,         18,         18,        1,   152064, 0x0f292094
0,         19,         19,        1,   152064, 0x3ef899fc
0,         20,         20,        1,   152064, 0x9a09b168
0,         21,         21,        1,   152064, 0x6e2de51e
0,         22,         22,        1,   152064, 0x6dcae8ee
0,         23,         23,        1,   152064, 0x8a5e29d8
0,         24,         24,        1,   152064, 0x91cce46b
0,         25,         25,        1,   152064, 0xf576ab0d
0,         26,         26,        1,   152064, 0x3301a89b
0,         27,         27,        1,   152064, 0xc4b6130c
0,         28,         28,        1,   152064, 0x37c00be0
0,         29,         29,        1,   152064, 0xd210b7ca
0,         30,         30,        1,   152064, 0x9eb783f2
0,         31,         31,        1,   152064, 0xfe9e9f79
0,         32,         32,        1,   152064, 0xcedbb511
0,         33,         33,        1,   152064, 0xf14efe8d
0,         34,         34,        1,   152064, 0x603fbef5
0,         35,         35,        1,   152064, 0x82a36887
0,         36,         36,        1,   152064, 0x8494465a
0,         37,         37,        1,   152064, 0x5ae9429a
0,         38,         38,        1,   152064, 0x7533853b
0,         39,         39,        1,   152064, 0xcf7b8cb2
0,         40,         40,        1,   152064, 0x9b297e6d
0,         41,         41,        1,   152064, 0x0182b2db
0,         42,         42,        1,   152064, 0xa2a9bcf0
0,         43,         43,        1,   152064, 0xc77c11f8
0,         44,         44,        1,   152064, 0xf0add83a
0,         45,         45,        1,   152064, 0x81315436
0,         46,         46,        1,   152064, 0x662e18cf
0,         47,         47,        1,   152064, 0x6d5c96e6
0,         48,         48,        1,   152064, 0x3ca384c3
0,         49,         49,        1,   152064, 0x6688c0e0
